<?xml version="1.0" encoding="UTF-8"?>
<!DOCTYPE svg PUBLIC "-//W3C//DTD SVG 1.0//EN" "http://www.w3.org/TR/2001/REC-SVG-20010904/DTD/svg10.dtd">
<!-- Creator: CorelDRAW 2018 (64-Bit) -->
<svg xmlns="http://www.w3.org/2000/svg" xml:space="preserve" width="188.645mm" height="48.8938mm" version="1.0" style="shape-rendering:geometricPrecision; text-rendering:geometricPrecision; image-rendering:optimizeQuality; fill-rule:evenodd; clip-rule:evenodd"
viewBox="0 0 14909.95 3864.41"
 xmlns:xlink="http://www.w3.org/1999/xlink">
 <defs>
  <style type="text/css">
   <![CDATA[
    .fil0 {fill:#FEFEFE}
   ]]>
  </style>
 </defs>
 <g id="Слой_x0020_1">
  <metadata id="CorelCorpID_0Corel-Layer"/>
  <g id="_3120110618416">
   <path class="fil0" d="M841.86 3556.21c-208.76,0 -167.06,-272.64 -23.71,-272.64 202.86,0 166.43,272.64 23.71,272.64zm-474.28 -272.64c0,-171.41 272.71,-193.72 272.71,0 0,184.21 -272.71,159.69 -272.71,0zm438.71 -82.98c-201.8,0 -179.04,-272.65 -11.86,-272.65 22.23,0 78.14,24.15 92.22,38.21 81.98,81.86 19.58,234.44 -80.36,234.44zm-509.86 -248.93c0,-176.8 272.72,-203.15 272.72,0 0,167.1 -272.72,169.88 -272.72,0zm2667.87 -426.74c0,-266.79 332.33,-352.46 477.65,-193.03 173.66,190.49 27.67,465.67 -169.37,465.67l-59.29 0c-135.64,0 -249,-136.37 -249,-272.64zm-2964.3 -1813.67l0 2441.94c0,147.51 59.55,278.66 132.72,388.89 18.3,27.56 15.31,22.75 36.19,46.81 49.26,56.72 9.06,32.68 87.24,90.59 24.11,17.86 29.06,29.62 49.64,45.2 86.06,65.11 266.1,139.75 393.79,139.75l2478.15 0c102.45,0 208.56,-39 280.64,-75.05 249.03,-124.59 418.93,-393.52 418.93,-683.61l0 -1161.69c0,-253.28 -146.07,-511.7 -367.71,-639.99 -231.74,-134.13 -606.05,-94.96 -924.72,-94.96 -675.86,0 -1351.72,0 -2027.58,0 -51.21,-76.46 -51.21,-42.09 0,-118.55 43.52,0 151.71,5.34 187.83,-1.88l132.41 -57.29c85.64,-38.62 175.9,-88.09 260.76,-130.5 86.97,-43.45 173.9,-86.94 260.86,-130.4l264.85 -126.4c178.54,-89.34 343.38,-171.01 521.68,-260.81 28.26,-14.23 37.18,-16.87 65.28,-29.58l199.49 -96.92c161.68,-80.84 344.64,-172.42 534.52,-28.53 126.78,96.07 125.84,166.64 187.96,274.4 20.84,36.16 8.77,20.73 39.8,31.34 315.93,108.04 273.89,372.08 357.89,637.94 14.48,45.81 39.12,46.16 78.18,75.94 149.17,113.7 185.66,205.2 228.5,233.87 0,-316.14 41.79,-810.16 -63.06,-1027.52 -115.97,-240.41 -353.75,-454.23 -636.51,-454.23l-2478.15 0c-162.09,0 -400.48,121.8 -483.37,216.15 -44.94,51.14 -116.97,147.66 -145.17,210.48 -30.73,68.46 -71.04,186.61 -71.04,284.6z"/>
   <path class="fil0" d="M5987.89 1220.96c9.1,39.05 16.74,51.84 30.86,87.68l230 659.12 -521.72 0c13.92,-59.7 39.63,-128.85 62.98,-185.97l197.88 -560.83zm-972.29 1552.88l426.85 0c34.03,-146.02 108.87,-283.34 142.29,-426.75l806.29 0 142.29 426.75 415 0c-4.68,-56.2 -345.46,-954.58 -386.58,-1059.72l-396 -1050.31 -367.58 0 -487.79 1314.15c-31.01,88.43 -64.17,175.07 -100.36,267.14 -19.11,48.63 -28.03,82.56 -47.27,130.55l-96.03 259.62c-16.16,39.54 -42.4,101.14 -51.11,138.56z"/>
   <path class="fil0" d="M7470.03 2003.33c0,-122.85 40.01,-223.63 103.58,-287.64 71.77,-72.27 153.36,-127.26 275.85,-127.26 119.5,0 232.49,61.9 294.47,144.21 187.18,248.59 65.41,685.57 -294.47,685.57 -102.74,0 -213.63,-45.46 -275.18,-116.07 -68.41,-78.48 -104.25,-190.47 -104.25,-298.81zm0 -628.26c-24.43,-46.17 -45.94,-84.96 -59.29,-142.25l-296.43 0 0 2074.46 391.29 0 0 -651.98c193.07,102.14 91.61,91.08 363.26,135.58 126.26,20.68 290.57,-45.49 391.79,-103.83 322.25,-185.76 447.24,-684.36 300.38,-1003.91 -72.72,-158.24 -169.19,-297.04 -331.98,-379.36 -288.78,-146.02 -507.38,-97.18 -759.02,71.29z"/>
   <path class="fil0" d="M9580.62 1588.44c151.36,0 242.56,66.08 318,179.95 29.33,44.25 28.23,71.96 49.57,116.41l-723.29 0c7.47,-89.8 64.03,-153.51 115.42,-204.67 48.12,-47.9 149.17,-91.68 240.3,-91.68zm-770.72 414.9c0,199.99 70.49,346.97 184.83,502.76 65.25,88.9 71.48,74.94 126.37,122.59 20.07,17.42 30.75,26.52 53.77,41.08 75.05,47.45 150.62,78.33 242.07,101.76 347.03,88.89 622.42,-88.52 796.92,-348.49 29.77,-44.35 41.41,-67.28 54.47,-123.35 -61.56,0 -353.26,-7.98 -389.51,1.77 -24.41,6.57 -28.95,22.21 -53.76,41.09 -150.74,114.73 -426,109.49 -540.91,-78.38 -21.12,-34.52 -30.04,-70.57 -47.39,-106.73l1067.15 0 11.86 -225.22c0,-363.79 -350.98,-711.24 -664,-711.24 -172.64,0 -243.68,-3.16 -407.21,78.91 -39.48,19.81 -84.77,47.56 -116.75,72.95 -193.73,153.73 -317.9,377.7 -317.9,630.51z"/>
   <path class="fil0" d="M13849.21 1375.07c-24.43,-46.17 -45.94,-84.96 -59.29,-142.25l-296.43 0 0 1541.03 391.29 0 0 -865.35c0,-130.43 74.38,-246.02 173.83,-288.52 225.95,-96.55 454.6,28.69 454.6,347.79l0 806.08 391.29 0c0,-253.92 27.15,-945.44 -39.85,-1145.57 -27.37,-81.77 -60.18,-138.47 -107.11,-201.13 -176.71,-235.86 -553.61,-270.12 -820.7,-106.72 -35.49,21.71 -51.56,35.55 -87.64,54.64z"/>
   <path class="fil0" d="M11299.92 1635.86c0,141.85 -6.03,218.62 101.31,325.46 200.19,199.26 602.96,197.97 662.16,298.72 86.99,148.01 -208.86,286.37 -357.75,155.61 -39.87,-35.02 -50.57,-79.58 -73.72,-127.82l-367.58 0c0,141.33 63,227.15 125.53,313.1 131.04,180.13 473.49,222.95 669.02,173.03 103.65,-26.46 223.76,-74.1 293.37,-157.16 160.49,-191.52 166.97,-437.56 -29.46,-616.63 -69.43,-63.29 -202.59,-112.75 -309.19,-141.34 -154.37,-41.41 -208.48,-51.86 -322.41,-128.13 0,-90.37 8.78,-189.66 177.86,-189.66 49.39,0 103.44,22.49 132.97,44.88 47.14,35.74 54.06,59.36 80.46,109.23l367.57 0c0,-237.12 -240.41,-474.17 -533.57,-474.17 -194.41,0 -284.52,-0.47 -455.47,125.49 -27.42,20.2 -35.95,23.44 -56.68,50.03 -49.43,63.41 -104.42,151.58 -104.42,239.37z"/>
   <path class="fil0" d="M10600.34 2773.85l355.72 0c27.32,0 35.57,-8.25 35.57,-35.57l0 -2038.89c0,-27.32 -8.25,-35.57 -35.57,-35.57l-355.72 0 0 2110.02z"/>
   <polygon class="fil0" points="12746.49,2773.85 13137.78,2773.85 13137.78,1232.82 12746.49,1232.82 "/>
   <path class="fil0" d="M1102.72 1007.59l493.32 -123.21c42.88,-10.72 75.52,-21.93 120.88,-33.26 225.25,-56.23 1244.63,-329.55 1377.8,-329.55 -4.88,-58.58 -67.09,-156.15 -109.58,-198.65 -210.35,-210.5 -440.73,-35.92 -673,80.11l-142.19 71.22c-21.06,9.44 -39.49,13.11 -59.31,23.69l-913.08 450.38c-36.68,18.3 -71.95,28.02 -94.85,59.27z"/>
   <path class="fil0" d="M12722.78 817.93c0,276.46 423.26,312.41 445.4,8.16 16.49,-226.78 -325.15,-315.24 -422.18,-91.64 -4.1,9.45 -23.21,72.23 -23.21,83.49z"/>
  </g>
 </g>
</svg>
