<svg width="1100" height="315" viewBox="0 0 1100 315" version="1.1" xmlns="http://www.w3.org/2000/svg" xmlns:xlink="http://www.w3.org/1999/xlink">
<g id="Canvas" transform="translate(344 -556)">
<g id="logo_03">
<g id="Shape 1 copy 6">
<use xlink:href="#path0_fill" transform="translate(-344 556)" fill="#FFFFFF"/>
</g>
<g id="Shape 1 copy 7">
<use xlink:href="#path1_fill" transform="translate(225.056 587.872)" fill="#FFFFFF"/>
</g>
</g>
</g>
<defs>
<path id="path0_fill" fill-rule="evenodd" d="M 176.487 31.0817C 172.691 25.0188 167.764 19.7428 161.975 15.5416C 156.191 11.4681 149.836 8.27346 143.117 6.06164C 135.654 3.62482 127.946 2.01841 120.132 1.2716C 111.192 0.393983 102.214 -0.0299141 93.2318 0.00157999L 14.5187 0.00157999C 7.44075 0.00157999 0.0187462 4.66164 0.0187462 13.4416L 0.0187462 141.332C 9.98975 162.652 29.4128 185.272 51.4958 196.092L 51.4958 170.722C 51.4958 157.342 61.5548 154.352 65.7148 154.352L 88.9877 154.352C 121.046 154.352 145.512 147.605 162.388 134.112C 179.264 120.642 187.703 100.632 187.704 74.0817C 187.752 66.4124 186.865 58.7659 185.061 51.3116C 183.271 44.1638 180.378 37.3386 176.487 31.0817L 176.487 31.0817ZM 130.62 96.7616C 127.905 101.485 123.851 105.299 118.971 107.722C 113.686 110.248 107.975 111.764 102.133 112.192C 95.7708 112.762 89.2014 113.045 82.4248 113.042L 60.3088 113.042C 54.8988 113.042 51.4988 108.632 51.4988 102.122L 51.4988 49.8317C 51.4988 43.9717 55.3137 41.5116 59.8887 41.5116L 82.4248 41.5116C 89.7668 41.5116 96.6514 41.7249 103.079 42.1516C 108.866 42.4136 114.548 43.7887 119.815 46.2017C 124.516 48.4399 128.404 52.0848 130.941 56.6316C 133.619 61.3116 134.959 67.9083 134.961 76.4216C 134.961 85.0816 133.514 91.8616 130.62 96.7616L 130.62 96.7616ZM 51.4988 204.352C 27.2118 194.632 10.9288 183.032 0.0217522 171.532L 0.0217522 233.272C 0.0217522 233.272 -0.878242 243.342 8.89976 243.342L 43.2408 243.342C 52.6598 243.342 51.4988 233.272 51.4988 233.272L 51.4988 204.352ZM 538.164 67.2816L 507.345 67.2816C 501.081 67.2816 496.955 69.9116 494.467 76.8216C 491.979 83.7316 459.316 174.882 459.316 174.882C 459.316 174.882 428.068 85.6016 425.61 78.6916C 423.152 71.7816 419.11 67.2816 411.834 67.2816L 383.522 67.2816C 373.532 67.2816 373.532 75.1416 374.772 78.2616C 375.772 80.7816 414.556 187.282 429.327 227.862C 432.809 237.432 434.185 240.322 434.292 243.872C 434.399 247.422 430.8 254.872 428.312 259.142C 427.169 261.093 425.857 262.941 424.39 264.662C 453.346 255.972 486.721 224.452 503.979 190.302C 521.042 142.712 543.549 79.8516 544.525 76.6316C 546.095 71.4216 546.076 67.2816 538.164 67.2816L 538.164 67.2816ZM 402.076 273.722C 399.4 273.678 396.729 273.484 394.076 273.142C 390.828 272.712 384.749 273.322 384.749 278.652L 384.749 302.502C 384.749 311.602 389.091 312.202 391.481 312.742C 398.672 314.249 406.007 314.96 413.354 314.862C 423.087 314.862 431.558 313.088 438.768 309.542C 446.05 305.931 452.535 300.899 457.841 294.742C 463.7 287.888 468.648 280.305 472.563 272.182C 476.865 263.462 480.995 253.848 484.953 243.342C 484.953 243.342 486.653 238.592 489.441 230.822C 480.945 239.422 440.876 277.492 402.076 273.722ZM 355.796 95.5817C 354.123 91.5985 351.839 87.9006 349.026 84.6216C 346.222 81.4783 343.013 78.721 339.484 76.4216C 335.672 73.9449 331.631 71.8418 327.416 70.1416C 323.112 68.4567 318.684 67.1061 314.173 66.1017C 309.046 64.9763 303.843 64.2308 298.607 63.8716C 292.953 63.4416 286.595 63.2283 279.534 63.2317C 232.846 63.2317 206.261 78.015 199.779 107.582C 197.672 116.762 206.731 117.302 206.731 117.302L 235.452 117.302C 242.952 117.302 242.627 114.882 246.266 108.082C 247.579 104.388 249.938 101.157 253.057 98.7816C 258.568 94.5216 266.829 92.3949 277.841 92.4016C 288.436 92.4016 296.134 94.455 300.934 98.5616C 305.739 102.682 308.563 108.928 309.407 117.302C 309.407 127.022 306.382 133.502 294.661 133.502C 266.081 132.462 235.369 135.702 218.072 145.632C 200.775 155.562 190.989 175.002 190.989 195.862C 190.989 204.372 192.507 211.825 195.545 218.222C 198.488 224.486 202.839 229.985 208.258 234.292C 214.005 238.782 220.594 242.074 227.637 243.972C 235.639 246.172 243.909 247.249 252.208 247.172C 264.636 247.172 275.618 245.608 285.154 242.482C 294.685 239.372 309.436 229.082 311.314 227.582L 311.314 233.062C 311.314 238.492 312.963 243.342 319.431 243.342L 352.831 243.342C 359.592 243.342 361.094 238.492 361.094 232.532L 361.094 129.442C 361.153 123.032 360.729 116.627 359.826 110.282C 359.11 105.231 357.755 100.291 355.796 95.5817L 355.796 95.5817ZM 310.256 196.672C 310.256 196.672 301.631 214.622 270.856 214.622C 262.389 214.622 255.505 212.705 250.203 208.872C 244.901 205.038 242.252 199.078 242.257 190.992C 242.257 180.482 246.565 173.062 255.183 168.732C 263.793 164.412 281.032 161.942 293.948 162.242C 306.864 162.542 310.261 170.722 310.261 176.372L 310.261 196.672L 310.256 196.672Z"/>
<path id="path1_fill" fill-rule="evenodd" d="M 524.55 106.14C 532.59 117.68 533.4 135.86 524.86 149.95C 517.24 162.54 471.6 210.83 456.75 226.35C 443.88 239.83 426.5 253.33 409.39 253.33L 51.314 253.33C 2.92101 253.33 -1.95312e-05 236.89 -1.95312e-05 199.72L -1.95312e-05 48.94C -1.95312e-05 10.98 11.182 -5.85937e-05 44.23 -5.85937e-05L 409.39 -5.85937e-05C 426.5 -5.85937e-05 441.72 8.75 459.2 26.56C 474.03 41.67 518.37 97.27 524.55 106.14ZM 448.12 138.48L 347.07 138.48C 347.67 165.28 360.56 179.73 383.32 179.73C 397.2 179.73 405.43 173.73 412.6 161.98C 415.71 156.87 422.09 157.15 422.09 157.15L 448.12 157.15C 452.37 157.15 454.25 161.31 453.51 163.3C 442.43 193.16 415.89 209.85 383.02 209.85C 335.39 209.85 303.93 177.33 303.93 128.56C 303.93 80.38 336.59 45.45 381.53 45.45C 425.99 45.45 455.81 76.48 457.71 126.45C 457.95 132.84 456.09 138.48 448.12 138.48L 448.12 138.48ZM 381.53 76.46C 362.65 76.46 349.47 89.71 347.07 111.4L 414.79 111.4C 412.98 92.42 402.79 76.46 381.53 76.46L 381.53 76.46ZM 273.19 211.26L 242.03 211.26C 233.74 211.26 234.68 203.85 234.68 201.9L 234.68 185.96L 234.71 185.96L 234.71 108.4C 234.71 97.71 233.203 90.0933 230.19 85.55C 227.177 81.0067 222.253 78.7334 215.419 78.73C 198.83 78.73 187.602 95.99 181.968 102.98L 181.968 200.15L 181.932 200.15L 181.932 202.29C 181.932 204.91 182.878 211.26 173.187 211.26L 142.429 211.26C 134.148 211.26 135.089 203.85 135.089 201.9L 135.089 185.96L 135.125 185.96L 135.125 108.4C 135.125 97.71 133.644 90.0933 130.683 85.55C 127.737 81.01 122.913 78.7367 116.212 78.73C 98.759 78.73 88.012 95.99 82.755 102.98L 82.755 202.29C 82.755 204.91 83.701 211.26 74.016 211.26L 42.867 211.26C 34.583 211.26 35.523 203.85 35.523 201.9L 35.523 140.5C 35.523 100.27 85.187 61.09 87.793 58.48C 99.437 48.88 115.867 43.92 129.999 43.92C 142.204 43.92 152.145 46.26 159.822 50.94C 167.499 55.62 173.238 62.9033 177.038 72.79C 184.785 63.69 192.856 56.6033 201.251 51.53C 209.618 46.4659 219.23 43.8309 229.01 43.92C 264.31 43.92 281.96 64.0267 281.96 104.24L 281.96 200.15L 281.94 200.15L 281.94 202.29C 281.94 204.91 282.88 211.26 273.19 211.26L 273.19 211.26ZM 35.52 57.51C 35.52 51.53 35.96 47.67 42.92 47.67L 72.844 47.67C 80.772 47.67 81.178 52.46 81.178 57.31L 81.178 58.31C 66.244 66.79 50.091 76.49 35.524 97.36L 35.524 57.51L 35.52 57.51Z"/>
</defs>
</svg>
