<?xml version="1.0" encoding="utf-8"?>
<!-- Generator: Adobe Illustrator 23.0.3, SVG Export Plug-In . SVG Version: 6.00 Build 0)  -->
<svg version="1.1" id="Layer_1" xmlns="http://www.w3.org/2000/svg" xmlns:xlink="http://www.w3.org/1999/xlink" x="0px" y="0px"
	 viewBox="0 0 198.5 55.4" style="enable-background:new 0 0 198.5 55.4;" xml:space="preserve">
<style type="text/css">
	.st0{fill:#FFFFFF;}
</style>
<g>
	<path class="st0" d="M52.9,20.6c-1.1-3.1-4.3-7.4-7.2-10.4c-2.9-3-6.4-5.6-10.5-7.8c-4.1-2.2-9-4-15-0.5c-4,2.3-7.5,5.5-10.5,8.4
		c-3,2.9-6,6-8,10.3c-2.5,5.5-2.1,9.7,0.4,15c1.7,3.6,5.5,7.8,8.4,10.7c2.9,2.9,4.8,4.5,9.1,6.8c5.3,2.8,10.1,3.3,15.5,0
		c3.9-2.4,7.4-5.3,10.3-8.2c3-3,5.3-5.7,7.3-9.4C55.6,30.2,55,26.4,52.9,20.6z M48.4,34.8c-1.6,3.6-4.1,6.1-6.5,8.5
		c-2.4,2.4-5.2,5-8.6,7c-4.8,2.9-8.9,1.4-12.2-0.4c-1.5-0.8-2.9-1.7-4.2-2.7c-2-1.2-3.4-2.6-5.2-4.4c-2.5-2.5-5.6-6.1-7-9.1
		c-2.1-4.5-2.5-8.1-0.4-12.8c1.7-3.7,4-6.3,6.5-8.8c2.4-2.5,5.6-5.2,9-7.1c5-2.9,9.1-1.4,12.6,0.5c3.4,1.9,6.3,4.1,8.8,6.6
		c2.4,2.5,5.1,6.2,6.1,8.8c0.1,0.3,0.2,0.5,0.3,0.8c0.1,0.3,0.3,0.5,0.4,0.8C50.1,26.8,50.5,30.3,48.4,34.8z M32.7,49.1
		c3.2-2,5.9-5,8.3-7.5c2.5-2.5,4.4-4.8,6.1-8c2.3-4.3,2-7.4,0.5-11.9c-1.5-2.8-4.2-5.8-6.4-8.1c-2.4-2.5-3.9-3.9-7.4-5.7
		c-4.2-2.1-8.8-2-13,0.5c-3.2,1.8-5.6,3.9-8,6.3c-2.4,2.4-4.1,4.7-5.5,8c-2,4.4-2.3,7.4-0.7,12.2c0.9,2.6,3.5,6.2,5.9,8.6
		c1.3,1.3,2.8,2.6,4.4,3.7c0.7,0.5,1.5,0.9,2.5,1.4C24,50.8,28.9,51.5,32.7,49.1z M8.6,21.6c1.4-2.7,3-4.7,5.1-6.8
		c2-2.1,4.5-4.3,7.2-6c3.8-2.4,7.1-1.9,10.9,0c2.9,1.4,4.4,2.9,6.4,5c2,2.1,4.7,5.2,5.9,7.8c1.3,2.5,1.8,4.8,1.5,7.1
		c-0.1,1.4-0.4,2.9-1.1,4.5c-1.2,2.7-2.3,3.8-4.1,5.6c-1.2,1.2-2.7,2.7-4.3,3.9c-1.4,1.2-2.9,2.5-4.6,3.5c-4.2,2.5-7.7,1.2-10.5-0.4
		c-2.8-1.6-5.3-3.5-7.4-5.7c-2.1-2.2-4.3-5.3-5.1-7.6C7,28.3,6.6,25.5,8.6,21.6z M45.6,28.8c-0.2,1.2-0.5,2.4-1.1,3.8
		c-1.4,3.2-3.5,5.4-5.6,7.5c-0.8,0.9-1.8,1.8-2.8,2.7c-0.7,0.5-1.4,1-2,1.3c-3.1,1.4-5.6,1.6-8.8,0.1c-2.6-1.2-5-3-6.7-4.8
		c-1.7-1.8-3.3-3.4-4.6-6.7c-1.4-3.2-1-6.5,0.3-9s3.1-4.6,4.8-6.4c1.7-1.8,4.3-3.7,6.2-4.4c3.4-1.3,5.7-1.6,8.8,0.1
		c2.2,1.2,3.8,2.6,5.6,4.5c1.7,1.8,3.7,3.8,4.8,6.3C45.3,25.4,45.7,27.1,45.6,28.8z"/>
	<path class="st0" d="M91,41c0,0.5,0,0.9,0,1.3c0,0.3-0.1,0.7-0.1,0.9c-0.1,0.3-0.1,0.5-0.2,0.7s-0.3,0.4-0.5,0.6
		C90,44.7,89.6,45,89,45.4c-0.6,0.3-1.4,0.7-2.3,1s-1.9,0.6-3.1,0.8s-2.4,0.3-3.7,0.3c-2.6,0-5-0.4-7.1-1.2s-3.9-2-5.4-3.6
		s-2.6-3.6-3.4-6c-0.8-2.4-1.2-5.2-1.2-8.4c0-3.3,0.4-6.2,1.3-8.7c0.9-2.5,2.1-4.6,3.6-6.4c1.6-1.7,3.4-3,5.6-3.9S77.9,8,80.5,8
		c1,0,2.1,0.1,3.1,0.3s1.9,0.4,2.7,0.7c0.9,0.3,1.6,0.6,2.3,1c0.7,0.4,1.1,0.7,1.4,1s0.5,0.5,0.5,0.7c0.1,0.2,0.2,0.4,0.2,0.7
		c0.1,0.3,0.1,0.6,0.1,1s0,0.8,0,1.4c0,0.6,0,1.1-0.1,1.5c0,0.4-0.1,0.7-0.2,1s-0.2,0.5-0.3,0.6c-0.1,0.1-0.3,0.2-0.5,0.2
		c-0.3,0-0.7-0.2-1.1-0.5c-0.5-0.3-1-0.7-1.8-1.2c-0.7-0.4-1.6-0.8-2.6-1.2c-1-0.3-2.2-0.5-3.6-0.5c-1.5,0-2.9,0.3-4.1,0.9
		c-1.2,0.6-2.2,1.5-3,2.7c-0.9,1.2-1.5,2.6-1.9,4.2S70.9,26,70.9,28c0,2.2,0.2,4.2,0.7,5.8s1.1,3,2,4.1s1.9,1.9,3.1,2.4
		s2.6,0.8,4.1,0.8c1.4,0,2.6-0.2,3.6-0.5s1.9-0.7,2.6-1.1c0.7-0.4,1.3-0.7,1.8-1s0.8-0.5,1.1-0.5c0.2,0,0.3,0,0.5,0.1
		c0.1,0.1,0.2,0.2,0.3,0.5c0.1,0.2,0.1,0.6,0.2,1C91,39.8,91,40.3,91,41L91,41z M117.6,43.6c0,0.6,0,1.1-0.1,1.5s-0.1,0.7-0.2,1
		s-0.2,0.5-0.4,0.6c-0.1,0.1-0.3,0.2-0.5,0.2H98.9c-0.7,0-1.2-0.2-1.6-0.6c-0.5-0.4-0.7-1-0.7-1.9V9.6c0-0.2,0.1-0.4,0.2-0.5
		s0.3-0.3,0.6-0.4c0.3-0.1,0.7-0.2,1.2-0.2c0.5-0.1,1.1-0.1,1.9-0.1s1.4,0,1.9,0.1s0.9,0.1,1.2,0.2c0.3,0.1,0.5,0.2,0.6,0.4
		s0.2,0.3,0.2,0.5v30.8h12c0.2,0,0.4,0.1,0.5,0.2s0.3,0.3,0.4,0.5c0.1,0.3,0.2,0.6,0.2,1C117.6,42.5,117.6,43,117.6,43.6L117.6,43.6
		z M130.1,45.8c0,0.2-0.1,0.4-0.2,0.5c-0.1,0.1-0.3,0.3-0.6,0.4c-0.3,0.1-0.7,0.2-1.2,0.2c-0.5,0.1-1.1,0.1-1.9,0.1
		c-0.7,0-1.4,0-1.9-0.1s-0.9-0.1-1.2-0.2c-0.3-0.1-0.5-0.2-0.6-0.4s-0.2-0.3-0.2-0.5V9.6c0-0.2,0.1-0.4,0.2-0.5s0.3-0.3,0.7-0.4
		c0.3-0.1,0.7-0.2,1.2-0.2c0.5-0.1,1.1-0.1,1.9-0.1s1.4,0,1.9,0.1c0.5,0.1,0.9,0.1,1.2,0.2c0.3,0.1,0.5,0.2,0.6,0.4s0.2,0.3,0.2,0.5
		L130.1,45.8L130.1,45.8z M164.9,41c0,0.5,0,0.9,0,1.3c0,0.3-0.1,0.7-0.1,0.9c-0.1,0.3-0.1,0.5-0.2,0.7c-0.1,0.2-0.3,0.4-0.5,0.6
		c-0.2,0.2-0.6,0.5-1.2,0.9c-0.6,0.3-1.4,0.7-2.3,1c-0.9,0.3-1.9,0.6-3.1,0.8c-1.2,0.2-2.4,0.3-3.7,0.3c-2.6,0-5-0.4-7.1-1.2
		s-3.9-2-5.4-3.6s-2.6-3.6-3.4-6c-0.8-2.4-1.2-5.2-1.2-8.4c0-3.3,0.4-6.2,1.3-8.7s2.1-4.6,3.6-6.4c1.6-1.7,3.4-3,5.6-3.9
		c2.2-0.9,4.6-1.3,7.2-1.3c1,0,2.1,0.1,3.1,0.3s1.9,0.4,2.7,0.7c0.9,0.3,1.6,0.6,2.3,1s1.1,0.7,1.4,1c0.3,0.3,0.5,0.5,0.5,0.7
		c0.1,0.2,0.2,0.4,0.2,0.7s0.1,0.6,0.1,1s0,0.8,0,1.4c0,0.6,0,1.1-0.1,1.5c0,0.4-0.1,0.7-0.2,1c-0.1,0.3-0.2,0.5-0.3,0.6
		s-0.3,0.2-0.5,0.2c-0.3,0-0.7-0.2-1.1-0.5c-0.5-0.3-1-0.7-1.8-1.2c-0.7-0.4-1.6-0.8-2.6-1.2c-1-0.3-2.2-0.5-3.6-0.5
		c-1.5,0-2.9,0.3-4.1,0.9c-1.2,0.6-2.2,1.5-3,2.7c-0.9,1.2-1.5,2.6-1.9,4.2s-0.7,3.5-0.7,5.5c0,2.2,0.2,4.2,0.7,5.8s1.1,3,2,4.1
		c0.9,1,1.9,1.9,3.1,2.4c1.2,0.5,2.6,0.8,4.1,0.8c1.4,0,2.6-0.2,3.6-0.5s1.9-0.7,2.6-1.1c0.7-0.4,1.3-0.7,1.8-1s0.8-0.5,1.1-0.5
		c0.2,0,0.3,0,0.5,0.1c0.1,0.1,0.2,0.2,0.3,0.5c0.1,0.2,0.1,0.6,0.2,1C164.9,39.8,164.9,40.3,164.9,41L164.9,41z M198.5,45.7
		c0,0.2-0.1,0.4-0.2,0.6c-0.1,0.2-0.3,0.3-0.6,0.4c-0.3,0.1-0.7,0.2-1.2,0.3s-1.2,0.1-2,0.1c-1.3,0-2.2-0.1-2.8-0.1
		c-0.6-0.1-1-0.3-1.2-0.5c-0.3-0.2-0.4-0.4-0.6-0.7l-11.6-18.2v18.2c0,0.2-0.1,0.4-0.2,0.6c-0.1,0.1-0.3,0.3-0.6,0.4
		c-0.3,0.1-0.7,0.2-1.2,0.3s-1.1,0.1-1.9,0.1c-0.7,0-1.4,0-1.9-0.1s-0.9-0.1-1.2-0.3c-0.3-0.1-0.5-0.3-0.6-0.4
		c-0.1-0.2-0.2-0.3-0.2-0.6V9.6c0-0.2,0.1-0.4,0.2-0.6c0.1-0.1,0.3-0.3,0.6-0.4c0.3-0.1,0.7-0.2,1.2-0.2s1.1-0.1,1.9-0.1
		c0.8,0,1.4,0,1.9,0.1s0.9,0.1,1.2,0.2c0.3,0.1,0.5,0.2,0.6,0.4s0.2,0.3,0.2,0.6v16.3l11.2-16.3c0.1-0.3,0.3-0.5,0.5-0.6
		c0.2-0.2,0.5-0.3,0.8-0.4s0.7-0.2,1.2-0.2s1.1-0.1,1.9-0.1c0.8,0,1.4,0,2,0.1c0.5,0.1,0.9,0.1,1.2,0.3c0.3,0.1,0.5,0.3,0.6,0.4
		c0.1,0.2,0.2,0.3,0.2,0.5c0,0.3-0.1,0.7-0.3,1s-0.5,0.9-1,1.7l-10.5,13.8l11.5,17.3c0.4,0.8,0.7,1.4,0.8,1.6
		C198.4,45.3,198.5,45.6,198.5,45.7L198.5,45.7z"/>
</g>
</svg>
