<?xml version="1.0" encoding="utf-8"?>
<!-- Generator: Adobe Illustrator 23.0.2, SVG Export Plug-In . SVG Version: 6.00 Build 0)  -->
<svg version="1.1" id="Layer_1" xmlns="http://www.w3.org/2000/svg" xmlns:xlink="http://www.w3.org/1999/xlink" x="0px" y="0px"
	 viewBox="0 0 478.99 109.97" enable-background="new 0 0 478.99 109.97" xml:space="preserve">
<g>
	<rect x="0" fill="none" width="478.99" height="109.97"/>
	<g>
		<path fill="#FFFFFF" d="M216.39,67.11V52.08c0-5.66-3.61-9.47-9.42-9.52c-3.37-0.22-6.59,1.41-8.41,4.26
			c-1.66-2.76-4.7-4.4-7.91-4.26c-2.8-0.14-5.47,1.21-7.01,3.56v-2.96h-5.21v23.94h5.26V53.84c0-4.16,2.3-6.36,5.86-6.36
			c3.46,0,5.21,2.25,5.21,6.31v13.32h5.26V53.84c0-4.16,2.4-6.36,5.86-6.36c3.56,0,5.26,2.25,5.26,6.31v13.32H216.39z M294.22,43.17
			h-8.51v-7.26h-5.26v7.26h-4.86v4.76h4.86v10.92c0,5.56,2.15,8.87,8.31,8.87c2.3,0.01,4.56-0.64,6.51-1.85l-1.5-4.46
			c-1.4,0.83-2.98,1.3-4.61,1.35c-2.6,0-3.46-1.6-3.46-4.01V47.93h8.51V43.17z M338.65,42.57c-2.59-0.08-5.01,1.27-6.31,3.51v-2.9
			h-5.16v23.94h5.21V53.69c0-3.96,1.7-6.16,5.11-6.16c1.11-0.02,2.22,0.19,3.26,0.6l1.6-4.91
			C341.17,42.79,339.91,42.57,338.65,42.57L338.65,42.57z M271.48,45.07c-2.95-1.75-6.34-2.62-9.77-2.5c-6.06,0-9.97,2.9-9.97,7.66
			c0,3.91,2.9,6.31,8.26,7.06l2.45,0.35c2.85,0.4,4.21,1.15,4.21,2.5c0,1.85-1.9,2.9-5.46,2.9c-2.86,0.08-5.67-0.8-7.96-2.5
			l-2.45,4.06c3.03,2.12,6.67,3.21,10.37,3.11c6.91,0,10.92-3.26,10.92-7.81c0-4.21-3.16-6.41-8.36-7.16l-2.45-0.35
			c-2.25-0.3-4.06-0.75-4.06-2.35c0-1.75,1.7-2.8,4.56-2.8c2.62,0.04,5.19,0.75,7.46,2.05L271.48,45.07z M411.03,42.57
			c-2.59-0.08-5.01,1.27-6.31,3.51v-2.9h-5.16v23.94h5.21V53.69c0-3.96,1.7-6.16,5.11-6.16c1.11-0.02,2.22,0.19,3.26,0.6l1.6-4.91
			C413.54,42.79,412.29,42.57,411.03,42.57L411.03,42.57z M343.91,55.14c0,7.26,5.06,12.57,12.77,12.57
			c3.13,0.16,6.2-0.86,8.61-2.86l-2.5-4.21c-1.8,1.37-4,2.13-6.26,2.15c-4.16-0.05-7.21-3.06-7.21-7.66c0-4.61,3.06-7.61,7.21-7.66
			c2.26,0.03,4.46,0.78,6.26,2.15l2.5-4.21c-2.41-1.99-5.49-3.01-8.61-2.86C348.97,42.57,343.91,47.88,343.91,55.14L343.91,55.14z
			 M392.69,55.14V43.17h-5.21v2.9c-1.8-2.32-4.62-3.63-7.56-3.51c-6.71,0-11.97,5.26-11.97,12.57c0,7.31,5.26,12.57,11.97,12.57
			c2.94,0.13,5.76-1.18,7.56-3.51v2.9h5.21V55.14z M373.31,55.14c0-4.21,2.75-7.66,7.26-7.66c4.31,0,7.21,3.31,7.21,7.66
			s-2.91,7.66-7.21,7.66C376.06,62.8,373.31,59.35,373.31,55.14z M310.45,42.57c-7.01,0-11.92,5.11-11.92,12.57
			c0,7.61,5.11,12.57,12.27,12.57c3.57,0.13,7.07-1.07,9.82-3.36l-2.55-3.86c-1.98,1.59-4.43,2.47-6.96,2.5
			c-3.36,0-6.41-1.55-7.16-5.86h17.78c0.05-0.65,0.1-1.3,0.1-2C321.77,47.68,317.16,42.57,310.45,42.57L310.45,42.57z M310.35,47.22
			c3.36,0,5.51,2.1,6.06,5.81h-12.42C304.54,49.58,306.64,47.22,310.35,47.22z M441.03,55.14V33.55h-5.21v12.52
			c-1.8-2.32-4.62-3.63-7.56-3.51c-6.71,0-11.97,5.26-11.97,12.57c0,7.31,5.26,12.57,11.97,12.57c2.94,0.13,5.76-1.18,7.56-3.51v2.9
			h5.21V55.14z M447.11,64.9c0.21,0,0.41,0.04,0.6,0.12c0.18,0.08,0.35,0.19,0.49,0.33c0.14,0.14,0.25,0.3,0.33,0.48
			c0.16,0.38,0.16,0.8,0,1.18c-0.08,0.18-0.19,0.34-0.33,0.48c-0.14,0.14-0.31,0.25-0.49,0.33c-0.19,0.08-0.39,0.12-0.6,0.12
			c-0.62,0.01-1.19-0.36-1.44-0.93c-0.16-0.38-0.16-0.8,0-1.18c0.16-0.37,0.45-0.66,0.82-0.81C446.7,64.94,446.9,64.9,447.11,64.9
			L447.11,64.9z M447.11,67.6c0.16,0,0.31-0.03,0.46-0.09c0.14-0.06,0.27-0.15,0.37-0.25c0.46-0.46,0.46-1.21,0-1.68
			c-0.11-0.11-0.23-0.19-0.37-0.25c-0.14-0.06-0.3-0.09-0.46-0.09c-0.16,0-0.32,0.03-0.47,0.09c-0.6,0.26-0.88,0.95-0.63,1.56
			c0.06,0.14,0.14,0.26,0.25,0.37c0.11,0.11,0.24,0.19,0.38,0.25C446.8,67.57,446.95,67.6,447.11,67.6L447.11,67.6z M447.2,65.71
			c0.15-0.01,0.3,0.03,0.42,0.12c0.1,0.08,0.15,0.2,0.15,0.33c0,0.11-0.04,0.21-0.12,0.29c-0.09,0.08-0.21,0.13-0.33,0.14l0.46,0.53
			h-0.36l-0.43-0.53h-0.14v0.53h-0.3v-1.41L447.2,65.71z M446.85,65.97v0.38h0.35c0.07,0,0.13-0.01,0.19-0.05
			c0.05-0.03,0.07-0.09,0.07-0.14c0-0.06-0.02-0.11-0.07-0.14c-0.06-0.03-0.12-0.05-0.19-0.05H446.85z M421.64,55.14
			c0-4.21,2.75-7.66,7.26-7.66c4.31,0,7.21,3.31,7.21,7.66s-2.91,7.66-7.21,7.66C424.4,62.8,421.64,59.35,421.64,55.14z
			 M245.74,55.14V43.17h-5.21v2.9c-1.8-2.32-4.62-3.63-7.56-3.51c-6.71,0-11.97,5.26-11.97,12.57c0,7.31,5.26,12.57,11.97,12.57
			c2.94,0.13,5.76-1.18,7.56-3.51v2.9h5.21V55.14z M226.36,55.14c0-4.21,2.75-7.66,7.26-7.66c4.31,0,7.21,3.31,7.21,7.66
			s-2.9,7.66-7.21,7.66C229.11,62.8,226.36,59.35,226.36,55.14L226.36,55.14z"/>
		<g>
			<rect x="80.46" y="26.68" fill="#C6C6C6" width="31.5" height="56.61"/>
			<path fill="#FFFFFF" d="M82.46,54.98c-0.01-11.05,5.06-21.48,13.75-28.3c-15.63-12.29-38.26-9.58-50.55,6.06
				C33.37,48.37,36.09,71,51.72,83.29c13.06,10.26,31.44,10.26,44.49,0C87.52,76.47,82.45,66.03,82.46,54.98z"/>
			<path fill="#FFFFFF" d="M154.46,54.98c0,19.88-16.12,36-36,36c-8.07,0-15.9-2.71-22.25-7.7c15.63-12.29,18.34-34.93,6.05-50.56
				c-1.77-2.25-3.8-4.28-6.05-6.05c15.63-12.29,38.26-9.58,50.55,6.06C151.75,39.08,154.46,46.91,154.46,54.98z"/>
			<path fill="#FFFFFF" d="M151.02,77.29v-1.16h0.47V75.9h-1.19v0.24h0.47v1.16H151.02z M153.33,77.29v-1.4h-0.36l-0.42,0.96
				l-0.42-0.96h-0.36v1.4h0.26v-1.05l0.39,0.91h0.27l0.39-0.91v1.06H153.33z"/>
		</g>
	</g>
</g>
</svg>
