<?xml version="1.0" encoding="UTF-8"?>
<!DOCTYPE svg PUBLIC "-//W3C//DTD SVG 1.1//EN" "http://www.w3.org/Graphics/SVG/1.1/DTD/svg11.dtd">
<!-- Creator: CorelDRAW 2017 -->
<svg xmlns="http://www.w3.org/2000/svg" xml:space="preserve" width="146mm" height="32mm" version="1.1" style="shape-rendering:geometricPrecision; text-rendering:geometricPrecision; image-rendering:optimizeQuality; fill-rule:evenodd; clip-rule:evenodd"
viewBox="0 0 14600 3200"
 xmlns:xlink="http://www.w3.org/1999/xlink">
 <defs>
  <style type="text/css">
   <![CDATA[
    .fil0 {fill:#FEFEFE}
   ]]>
  </style>
 </defs>
 <g id="Слой_x0020_1">
  <metadata id="CorelCorpID_0Corel-Layer"/>
  <path class="fil0" d="M52.52 1571.52c0,370.93 87.74,629.38 270.9,905.97 248.35,375.02 745.3,668.83 1193.84,668.83 298.21,0 501.54,-20.94 762.03,-152.36 85.7,-43.24 156.46,-83.24 232.21,-140.33 63.75,-48.06 155.2,-119.86 206.02,-174.98l164.56 -207.97c54.33,-81.66 92.01,-151.47 136.71,-244.29 218.46,-453.61 152.78,-1082.18 -128.67,-1485.86l-121.92 -157.49c-34.84,-36.57 -38.84,-51.6 -93.02,-101.71l-152.7 -126.7c-76.43,-56.83 -148.42,-98.78 -237.58,-143.42 -463.25,-231.97 -1042.66,-204.57 -1482.55,61.21 -447.51,270.38 -749.83,766.62 -749.83,1299.1z"/>
  <path class="fil0" d="M11245.47 1495.32c0,248.86 3.65,483.35 192.5,671.11 131.66,130.91 274.72,209.43 484.84,209.43l787.54 0 -0.01 -338.67 -694.4 0c-176.95,0 -298.63,-40.27 -392.11,-166.69 -19.9,-26.92 -53.41,-91.05 -56.62,-129.64l1143 0 0 -313.27 -1143 0c19.13,-82.11 86.18,-173.51 150.51,-213.56 100.24,-62.4 151.04,-65.84 306.69,-65.84l685.77 -0.81 0.03 -346.32 -778.94 0c-275.52,0 -522.72,158.76 -623.1,409.83 -28.57,71.44 -62.7,190.31 -62.7,284.43z"/>
  <path class="fil0" d="M6030 1520.72c0,-224.22 183.58,-389.46 423.33,-389.46 146.83,0 277.48,11.86 379.13,111.93 139.15,136.98 120.41,281.51 120.41,472.27l-922.87 0 0 -194.74zm-313.27 -67.73l0 922.87 304.8 0 0 -321.74 0.01 -25.31 25.39 -0.09 905.94 0 0 347.14 313.26 0 0 -897.47c0,-404.88 -329.71,-685.8 -736.6,-685.8 -246.73,0 -401.61,30.15 -593.94,184.99 -52.08,41.92 -121.78,133.15 -151.14,195.99 -32.08,68.67 -67.72,179.41 -67.72,279.42z"/>
  <path class="fil0" d="M4836.2 1622.32l-592.67 0 0 -499.53 651.93 0c53.11,0 125.51,43.15 153.79,74.81 139.13,155.73 52.82,424.72 -213.05,424.72zm-905.94 753.54l313.27 0 0 -440.27 609.6 0c736.11,0 793.67,-1134.53 -42.33,-1134.53l-880.54 0 0 1574.8z"/>
  <path class="fil0" d="M9374.34 1444.52l0 931.34 304.8 0 0 -778.94c0,-150.95 31.7,-246.23 100.22,-331.58 171.5,-213.63 831.11,-214.41 831.11,263.85l0 846.67 313.27 0 0 -872.07c0,-121.45 -23.94,-212.86 -57.94,-297.66 -84.62,-211.09 -312.37,-368.69 -560.61,-405.4 -91.38,-13.5 -197.79,-9.48 -289.24,0.45 -161.82,17.59 -299.91,65.71 -423.55,175.61 -107.07,95.17 -218.06,269.26 -218.06,467.73z"/>
  <path class="fil0" d="M7554 1173.59c0,283.13 152.19,491.58 366.74,606.92 75.36,40.51 159.52,57.49 251.33,78.88l0 516.47 313.27 0 0 -516.47c95.05,-22.15 158.9,-32.45 239.95,-73.31 75.58,-38.1 133.65,-75.64 189.88,-131.86 233.83,-233.76 188.23,-516.56 188.23,-853.16l-304.8 0c0,233.92 26.25,424.82 -97.67,588.13 -27.26,35.93 -89.18,79.21 -130.86,97.73 -159.44,70.86 -446.84,63.9 -582.34,-69.72 -158.54,-156.33 -120.46,-357.12 -120.46,-616.14l-313.27 0 0 372.53z"/>
  <polygon class="fil0" points="13027.61,1123.78 13028.31,1147.53 13158.94,1148.19 13489.14,1148.19 13633.31,1147.97 13633.08,1173.59 13633.08,2375.86 13937.88,2375.86 13937.88,1173.59 13937.31,1148.02 13987.73,1147.25 14403.55,1148.19 14547.44,1147.37 14547.48,801.06 13027.69,801.06 "/>
 </g>
</svg>
