<?xml version="1.0" encoding="UTF-8"?>
<!DOCTYPE svg PUBLIC "-//W3C//DTD SVG 1.1//EN" "http://www.w3.org/Graphics/SVG/1.1/DTD/svg11.dtd">
<!-- Creator: CorelDRAW X7 -->
<svg xmlns="http://www.w3.org/2000/svg" xml:space="preserve" width="2794px" height="505px" version="1.1" style="shape-rendering:geometricPrecision; text-rendering:geometricPrecision; image-rendering:optimizeQuality; fill-rule:evenodd; clip-rule:evenodd"
viewBox="0 0 2889 522"
 xmlns:xlink="http://www.w3.org/1999/xlink">
 <defs>
  <style type="text/css">
   <![CDATA[
    .fil0 {fill:#FEFEFE}
   ]]>
  </style>
 </defs>
 <g id="Слой_x0020_1">
  <metadata id="CorelCorpID_0Corel-Layer"/>
  <path class="fil0" d="M162 441c105,0 151,-58 151,-139l0 -209 -69 0 0 209c0,46 -35,81 -82,81 -58,0 -81,-35 -81,-81l0 -209 -81 0 0 209c0,81 58,139 162,139l0 0zm2727 -371l0 0c0,34 -35,58 -70,58 -35,0 -58,-24 -58,-58 0,-35 23,-70 58,-70l70 0 0 70zm-2123 371l0 -70 -163 0 163 -220 0 -58 -256 0 0 69 163 0 -163 221 0 58 256 0zm359 0c82,0 116,-35 151,-81l-69 -24c-12,24 -47,47 -82,47 -58,0 -104,-47 -104,-116 0,-58 46,-116 104,-116 35,0 70,23 82,58l69 -35c-35,-46 -69,-81 -151,-81 -104,0 -185,69 -185,174 0,104 81,174 185,174l0 0zm650 0l-128 -348 -92 0 -140 348 82 0 23 -58 151 0 23 58 81 0 0 0zm-128 -128l-104 0 58 -139 46 139zm604 209l-128 -209c35,-11 81,-46 81,-104 0,-70 -46,-116 -116,-116l-162 0 0 348 69 0 0 -128 58 0 116 209 82 0 0 0zm-174 -267l-82 0 0 -93 82 0c23,0 46,12 46,47 0,23 -23,46 -46,46zm452 186c104,0 186,-70 186,-174 0,-105 -82,-174 -186,-174l-139 0 0 348 139 0zm0 -70l-70 0 0 -209 70 0c70,0 104,47 104,105 0,58 -34,104 -104,104l0 0z"/>
 </g>
</svg>
